<svg width="14" height="14" viewBox="0 0 14 14" fill="none" xmlns="http://www.w3.org/2000/svg">
<path d="M5.375 5.90674H12.875C12.9438 5.90674 13 5.85049 13 5.78174V4.90674C13 4.83799 12.9438 4.78174 12.875 4.78174H5.375C5.30625 4.78174 5.25 4.83799 5.25 4.90674V5.78174C5.25 5.85049 5.30625 5.90674 5.375 5.90674ZM5.25 9.09424C5.25 9.16299 5.30625 9.21924 5.375 9.21924H12.875C12.9438 9.21924 13 9.16299 13 9.09424V8.21924C13 8.15049 12.9438 8.09424 12.875 8.09424H5.375C5.30625 8.09424 5.25 8.15049 5.25 8.21924V9.09424ZM13.125 1.50049H0.875C0.80625 1.50049 0.75 1.55674 0.75 1.62549V2.50049C0.75 2.56924 0.80625 2.62549 0.875 2.62549H13.125C13.1938 2.62549 13.25 2.56924 13.25 2.50049V1.62549C13.25 1.55674 13.1938 1.50049 13.125 1.50049ZM13.125 11.3755H0.875C0.80625 11.3755 0.75 11.4317 0.75 11.5005V12.3755C0.75 12.4442 0.80625 12.5005 0.875 12.5005H13.125C13.1938 12.5005 13.25 12.4442 13.25 12.3755V11.5005C13.25 11.4317 13.1938 11.3755 13.125 11.3755ZM1.225 9.0333L3.66719 7.10986C3.68363 7.09694 3.69692 7.08045 3.70606 7.06164C3.71521 7.04283 3.71996 7.02218 3.71996 7.00127C3.71996 6.98036 3.71521 6.95971 3.70606 6.9409C3.69692 6.92209 3.68363 6.9056 3.66719 6.89268L1.225 4.96768C1.13437 4.8958 1 4.95986 1 5.07549V8.92393C0.999992 8.95002 1.00733 8.9756 1.02117 8.99772C1.03501 9.01985 1.05479 9.03763 1.07827 9.04904C1.10174 9.06045 1.12794 9.06502 1.15389 9.06224C1.17984 9.05946 1.20448 9.04943 1.225 9.0333Z" fill="#8C8C8C"/>
</svg>
