<svg width="16" height="16" viewBox="0 0 16 16" fill="none" xmlns="http://www.w3.org/2000/svg">
<path fill-rule="evenodd" clip-rule="evenodd" d="M12.375 2.75H13.8125C13.9948 2.75 14.1697 2.82243 14.2986 2.95136C14.4276 3.0803 14.5 3.25516 14.5 3.4375V5.75C14.5 7.02656 13.5625 8.0875 12.3406 8.28125C12.1 10.0969 10.6406 11.5281 8.8125 11.7266V13.3703H11.875C12.1516 13.3703 12.375 13.5938 12.375 13.8703V14.375C12.375 14.4438 12.3188 14.5 12.25 14.5H4.25C4.18125 14.5 4.125 14.4438 4.125 14.375V13.8703C4.125 13.5938 4.34844 13.3703 4.625 13.3703H7.6875V11.7266C5.85938 11.5281 4.4 10.0969 4.15937 8.28125C2.9375 8.0875 2 7.02656 2 5.75V3.4375C2 3.25516 2.07243 3.0803 2.20136 2.95136C2.3303 2.82243 2.50516 2.75 2.6875 2.75H4.125V2.125C4.125 2.05625 4.18125 2 4.25 2H12.25C12.3188 2 12.375 2.05625 12.375 2.125V2.75ZM4.125 7.11875V3.875H3.125V5.75C3.12506 5.93422 3.16051 6.11555 3.22826 6.28452C3.38717 6.67904 3.71652 6.98773 4.125 7.11875ZM3.41315 6.61287C3.51249 6.74486 3.63404 6.85919 3.77221 6.95025C3.63476 6.85979 3.51308 6.7459 3.41315 6.61287ZM12.375 7.11875C12.9547 6.93438 13.375 6.39062 13.375 5.75V3.875H12.375V7.11875Z" fill="#061178"/>
</svg>
