<svg width="64" height="64" viewBox="0 0 64 64" fill="none" xmlns="http://www.w3.org/2000/svg">
<rect width="64" height="64" fill="white"/>
<path d="M45.503 25.7478H50.2881V30.915H45.503V40.7886C45.503 44.1491 45.7107 44.1391 46.126 44.5328C46.5413 44.9265 47.3719 45.1233 48.6179 45.1233C49.0332 45.1725 49.3966 45.1233 49.8119 45.0741C50.1754 45.0741 50.6775 44.7953 50.937 44.5328V49.946C50.2881 50.2238 49.5524 50.5365 48.8256 50.5365C48.0468 50.5857 47.32 50.5857 46.5932 50.5857C46.5445 50.5857 45.7225 50.5857 45.3764 50.5365C44.5334 50.4166 43.2796 49.9706 42.5008 49.5277C42.0682 49.2816 40.9434 48.1744 40.8136 47.6823C40.4242 47.0671 40.2076 45.8615 40.2076 44.582V30.915H35.6221V25.7478H40.2076V17.136H45.503V25.7478Z" fill="#10239E"/>
<path fill-rule="evenodd" clip-rule="evenodd" d="M12.7793 30.915H16.4134V49.9952H22.2279V30.915H26.5369L26.5368 25.7478H22.2279L22.2279 25.3049C22.2279 24.2715 22.4356 23.2901 22.8509 22.8472C23.2662 22.4044 23.993 22.1583 25.0313 22.1583C25.9658 22.1583 26.8484 22.2075 27.7309 22.3059V17.136L25.7581 17.136L23.8113 17.136C21.3453 17.136 19.3985 18.3281 18.2304 19.4735C16.7249 20.9498 16.4134 22.6476 16.4134 24.8621L16.4133 25.7478H12.7793L12.7793 30.915ZM34.0646 33.1295H28.4058V49.9952H34.0646V33.1295Z" fill="#10239E"/>
<path d="M34.0646 28.3807C34.0646 29.8797 32.838 31.0949 31.339 31.0949C29.84 31.0949 28.6135 29.8797 28.6135 28.3807C28.6135 26.8816 29.84 25.6664 31.339 25.6664C32.838 25.6664 34.0646 26.8816 34.0646 28.3807Z" fill="#40A9FF"/>
</svg>
