<svg width="14" height="14" viewBox="0 0 14 14" fill="none" xmlns="http://www.w3.org/2000/svg">
<g clip-path="url(#clip0_278_3889)">
<rect width="14" height="14" fill="white" fill-opacity="0.01"/>
<path d="M3.69336 10.1406C3.69336 10.4605 3.95449 10.7217 4.27578 10.7217H4.9416V12.3678C4.9416 12.7848 5.27656 13.1252 5.68809 13.1252C6.10098 13.1252 6.43457 12.7861 6.43457 12.3678V10.7203H7.59668V12.3664C7.59668 12.7834 7.93164 13.1238 8.34316 13.1238C8.75605 13.1238 9.08965 12.7848 9.08965 12.3664V10.7203H9.75547C10.0768 10.7203 10.3379 10.4592 10.3379 10.1393V4.73613H3.69336V10.1406ZM8.57559 1.93613L9.18945 1.04746C9.225 0.995507 9.2168 0.92578 9.16895 0.8916C9.12109 0.858788 9.05273 0.875194 9.01719 0.927147L8.38008 1.85137C7.96035 1.68594 7.49277 1.59433 7.00195 1.59433C6.51113 1.59433 6.04355 1.68594 5.62383 1.85137L4.98672 0.928515C4.95117 0.876561 4.88281 0.858788 4.83496 0.892968C4.78711 0.92578 4.77891 0.99414 4.81445 1.04883L5.42832 1.9375C4.45215 2.39141 3.76855 3.25137 3.68105 4.25625H10.3256C10.2354 3.25 9.55039 2.39004 8.57559 1.93613ZM5.59922 3.3375C5.52648 3.3375 5.45537 3.31593 5.39489 3.27552C5.33441 3.23511 5.28728 3.17767 5.25944 3.11047C5.2316 3.04326 5.22432 2.96932 5.23851 2.89798C5.2527 2.82664 5.28773 2.7611 5.33916 2.70967C5.3906 2.65824 5.45613 2.62321 5.52747 2.60902C5.59881 2.59483 5.67276 2.60211 5.73996 2.62995C5.80716 2.65778 5.8646 2.70492 5.90501 2.7654C5.94542 2.82588 5.96699 2.89699 5.96699 2.96973C5.96674 3.06719 5.92791 3.16059 5.85899 3.2295C5.79008 3.29842 5.69668 3.33725 5.59922 3.3375ZM8.44844 3.3375C8.3757 3.3375 8.30459 3.31593 8.24411 3.27552C8.18363 3.23511 8.1365 3.17767 8.10866 3.11047C8.08082 3.04326 8.07354 2.96932 8.08773 2.89798C8.10192 2.82664 8.13695 2.7611 8.18838 2.70967C8.23982 2.65824 8.30535 2.62321 8.37669 2.60902C8.44803 2.59483 8.52198 2.60211 8.58918 2.62995C8.65638 2.65778 8.71382 2.70492 8.75423 2.7654C8.79464 2.82588 8.81621 2.89699 8.81621 2.96973C8.81596 3.06719 8.77713 3.16059 8.70821 3.2295C8.6393 3.29842 8.5459 3.33725 8.44844 3.3375ZM11.5027 4.71426C11.0898 4.71426 10.7562 5.05332 10.7562 5.47168V8.43027C10.7562 8.84726 11.0912 9.18769 11.5027 9.18769C11.9156 9.18769 12.2492 8.84863 12.2492 8.43027V5.47031C12.2506 5.05195 11.917 4.71426 11.5027 4.71426ZM2.49844 4.71426C2.08555 4.71426 1.75195 5.05332 1.75195 5.47168V8.43027C1.75195 8.84726 2.08691 9.18769 2.49844 9.18769C2.91133 9.18769 3.24492 8.84863 3.24492 8.43027V5.47031C3.24492 5.05195 2.90996 4.71426 2.49844 4.71426Z" fill="black" fill-opacity="0.85"/>
</g>
<defs>
<clipPath id="clip0_278_3889">
<rect width="14" height="14" fill="white"/>
</clipPath>
</defs>
</svg>
