<svg width="14" height="14" viewBox="0 0 14 14" fill="none" xmlns="http://www.w3.org/2000/svg">
<g clip-path="url(#clip0_278_3896)">
<rect width="14" height="14" fill="white" fill-opacity="0.01"/>
<path d="M10.2184 7.32415C10.2129 6.39172 10.6354 5.68899 11.4885 5.17083C11.0113 4.48723 10.2895 4.11126 9.33789 4.03879C8.43691 3.9677 7.45117 4.56379 7.09023 4.56379C6.70879 4.56379 5.83652 4.0634 5.1502 4.0634C3.73379 4.08528 2.22852 5.1927 2.22852 7.44583C2.22852 8.11165 2.3502 8.79934 2.59355 9.50755C2.91895 10.44 4.09199 12.7245 5.31562 12.6876C5.95547 12.6726 6.40801 12.2337 7.24062 12.2337C8.04863 12.2337 8.46699 12.6876 9.18066 12.6876C10.4152 12.6699 11.4762 10.5931 11.7852 9.65794C10.1295 8.87727 10.2184 7.372 10.2184 7.32415ZM8.78145 3.15422C9.47461 2.33118 9.41172 1.58196 9.39121 1.31262C8.77871 1.34817 8.07051 1.72961 7.66719 2.19856C7.22285 2.70168 6.96172 3.32376 7.01777 4.02512C7.67949 4.07571 8.28379 3.73528 8.78145 3.15422Z" fill="black" fill-opacity="0.85"/>
</g>
<defs>
<clipPath id="clip0_278_3896">
<rect width="14" height="14" fill="white"/>
</clipPath>
</defs>
</svg>
