<svg width="14" height="14" viewBox="0 0 14 14" fill="none" xmlns="http://www.w3.org/2000/svg">
<g clip-path="url(#clip0_278_972)">
<rect width="14" height="14" fill="white" fill-opacity="0.01"/>
<path fill-rule="evenodd" clip-rule="evenodd" d="M9.07539 1.72278H11.8945C12.0541 1.72278 12.2071 1.78616 12.3199 1.89897C12.4327 2.01179 12.4961 2.1648 12.4961 2.32434V5.76965C12.4961 5.9292 12.4327 6.08221 12.3199 6.19502C12.2071 6.30784 12.0541 6.37122 11.8945 6.37122H10.8691V11.6759C10.8691 11.8354 10.8058 11.9885 10.6929 12.1013C10.5801 12.2141 10.4271 12.2775 10.2676 12.2775H3.73242C3.57288 12.2775 3.41987 12.2141 3.30705 12.1013C3.19424 11.9885 3.13086 11.8354 3.13086 11.6759V6.37122H2.10547C1.94592 6.37122 1.79291 6.30784 1.6801 6.19502C1.56728 6.08221 1.50391 5.9292 1.50391 5.76965V2.32434C1.50391 2.1648 1.56728 2.01179 1.6801 1.89897C1.79291 1.78616 1.94592 1.72278 2.10547 1.72278H4.92461C5.04178 1.72258 5.15557 1.76207 5.24743 1.83481C5.33929 1.90755 5.40381 2.00926 5.43047 2.12337C5.60137 2.84524 6.24805 3.3634 7 3.3634C7.75195 3.3634 8.39863 2.84524 8.56953 2.12337C8.62559 1.88547 8.8375 1.72278 9.07539 1.72278ZM2.48828 2.70717V2.70715H4.58418C4.96973 3.68059 5.91719 4.34778 7 4.34778C8.08281 4.34778 9.03027 3.68059 9.41582 2.70715H11.5117V2.70717H9.41582C9.03027 3.68061 8.08281 4.3478 7 4.3478C5.91719 4.3478 4.96973 3.68061 4.58418 2.70717H2.48828Z" fill="#2F54EB"/>
</g>
<defs>
<clipPath id="clip0_278_972">
<rect width="14" height="14" fill="white"/>
</clipPath>
</defs>
</svg>
