<svg width="15" height="14" viewBox="0 0 15 14" fill="none" xmlns="http://www.w3.org/2000/svg">
<g clip-path="url(#clip0_493_2040)">
<path d="M13.2423 6.35161C13.2376 5.92974 13.236 5.50474 13.2345 5.0813H11.972C11.9673 5.50317 11.9642 5.92661 11.961 6.35161C11.536 6.35317 11.1142 6.3563 10.6923 6.36099V7.62505C11.1142 7.62974 11.5392 7.63286 11.961 7.63755C11.9657 8.05942 11.9657 8.48286 11.9689 8.90474H13.2329C13.2345 8.48286 13.2376 8.05942 13.2407 7.63442C13.6657 7.62974 14.0876 7.62817 14.5095 7.62349V6.35942C14.0892 6.3563 13.6642 6.3563 13.2423 6.35161ZM4.96105 6.35786C4.95948 6.86255 4.96105 7.3688 4.96261 7.87349C5.80948 7.90161 6.65792 7.88911 7.5048 7.90161C7.13136 9.7813 4.57667 10.3907 3.22511 9.16255C1.83448 8.08599 1.90011 5.72505 3.34542 4.72505C4.35636 3.9188 5.7923 4.11724 6.80323 4.81567C7.20011 4.44849 7.57198 4.05474 7.9298 3.64849C7.08917 2.97817 6.05792 2.50005 4.96105 2.55005C2.67042 2.47349 0.565733 4.47974 0.528233 6.77192C0.381358 8.64536 1.61261 10.4813 3.35011 11.1438C5.08136 11.811 7.30167 11.3563 8.40792 9.80005C9.13761 8.81724 9.29542 7.55161 9.20948 6.36255C7.7923 6.35161 6.37667 6.35317 4.96105 6.35786Z" fill="black" fill-opacity="0.85"/>
</g>
<defs>
<clipPath id="clip0_493_2040">
<rect width="14" height="14" fill="white" transform="translate(0.5)"/>
</clipPath>
</defs>
</svg>
